ffmpeg started on 2016-12-12 at 07:25:00
Report written to "Output/theora/results/ffmpeg/Tcrowd_run_2160p508000k.log"
Command line:
Tools/ffmpeg/ffmpeg -i Output/theora/encoded/crowd_run_2160p508000k.mkv -c:v rawvideo -pix_fmt yuv420p Output/theora/transcoded/crowd_run_2160p508000k.yuv
ffmpeg version N-82227-gdb23fde Copyright (c) 2000-2016 the FFmpeg developers
  built with gcc 5.4.0 (Ubuntu 5.4.0-6ubuntu1~16.04.2) 20160609
  configuration: --prefix=/home/jaroslav/ffmpeg_build --pkg-config-flags=--static --extra-cflags=-I/home/jaroslav/ffmpeg_build/include --extra-ldflags=-L/home/jaroslav/ffmpeg_build/lib --bindir=/home/jaroslav/bin --enable-gpl --enable-libass --enable-libfdk-aac --enable-libfreetype --enable-libmp3lame --enable-libopus --enable-libtheora --enable-libvorbis --enable-libvpx --enable-libx264 --enable-libx265 --enable-nvenc --enable-libmfx --enable-libxvid --enable-libgsm --enable-libopencore-amrnb --enable-version3 --enable-nonfree
  libavutil      55. 35.100 / 55. 35.100
  libavcodec     57. 66.101 / 57. 66.101
  libavformat    57. 57.100 / 57. 57.100
  libavdevice    57.  2.100 / 57.  2.100
  libavfilter     6. 66.100 /  6. 66.100
  libswscale      4.  3.100 /  4.  3.100
  libswresample   2.  4.100 /  2.  4.100
  libpostproc    54.  2.100 / 54.  2.100
Input #0, matroska,webm, from 'Output/theora/encoded/crowd_run_2160p508000k.mkv':
  Metadata:
    ENCODER         : Lavf57.57.100
  Duration: 00:00:10.00, start: 0.000000, bitrate: 8775 kb/s
    Stream #0:0: Video: theora, yuv420p(progressive), 3840x2160 [SAR 1:1 DAR 16:9], 50 fps, 50 tbr, 1k tbn, 50 tbc (default)
    Metadata:
      ENCODER         : Lavc57.66.101 libtheora
      DURATION        : 00:00:10.000000000
Output #0, rawvideo, to 'Output/theora/transcoded/crowd_run_2160p508000k.yuv':
  Metadata:
    encoder         : Lavf57.57.100
    Stream #0:0: Video: rawvideo (I420 / 0x30323449), yuv420p, 3840x2160 [SAR 1:1 DAR 16:9], q=2-31, 200 kb/s, 50 fps, 50 tbn, 50 tbc (default)
    Metadata:
      DURATION        : 00:00:10.000000000
      encoder         : Lavc57.66.101 rawvideo
Stream mapping:
  Stream #0:0 -> #0:0 (theora (native) -> rawvideo (native))
Press [q] to stop, [?] for help
frame=   17 fps=0.0 q=-0.0 size=  206550kB time=00:00:00.34 bitrate=4976640.0kbits/s speed=0.663x    frame=   34 fps= 33 q=-0.0 size=  413100kB time=00:00:00.68 bitrate=4976640.0kbits/s speed=0.665x    frame=   60 fps= 34 q=-0.0 size=  729000kB time=00:00:01.20 bitrate=4976640.0kbits/s dup=16 drop=0 speed=0.679x    frame=   84 fps= 34 q=-0.0 size= 1020600kB time=00:00:01.68 bitrate=4976640.0kbits/s dup=35 drop=0 speed=0.686x    frame=  109 fps= 34 q=-0.0 size= 1324350kB time=00:00:02.18 bitrate=4976640.0kbits/s dup=54 drop=0 speed=0.683x    frame=  132 fps= 34 q=-0.0 size= 1603800kB time=00:00:02.64 bitrate=4976640.0kbits/s dup=72 drop=0 speed=0.682x    frame=  154 fps= 34 q=-0.0 size= 1871100kB time=00:00:03.08 bitrate=4976640.0kbits/s dup=89 drop=0 speed=0.681x    frame=  177 fps= 35 q=-0.0 size= 2150550kB time=00:00:03.54 bitrate=4976640.0kbits/s dup=107 drop=0 speed= 0.7x    frame=  193 fps= 34 q=-0.0 size= 2344950kB time=00:00:03.86 bitrate=4976640.0kbits/s dup=119 drop=0 speed=0.683x    frame=  214 fps= 34 q=-0.0 size= 2600100kB time=00:00:04.28 bitrate=4976640.0kbits/s dup=135 drop=0 speed=0.673x    frame=  241 fps= 34 q=-0.0 size= 2928150kB time=00:00:04.82 bitrate=4976640.0kbits/s dup=156 drop=0 speed=0.678x    frame=  264 fps= 33 q=-0.0 size= 3207600kB time=00:00:05.28 bitrate=4976640.0kbits/s dup=174 drop=0 speed=0.665x    frame=  277 fps= 32 q=-0.0 size= 3365550kB time=00:00:05.54 bitrate=4976640.0kbits/s dup=184 drop=0 speed=0.647x    frame=  296 fps= 33 q=-0.0 size= 3596400kB time=00:00:05.92 bitrate=4976640.0kbits/s dup=200 drop=0 speed=0.652x    frame=  312 fps= 32 q=-0.0 size= 3790800kB time=00:00:06.24 bitrate=4976640.0kbits/s dup=212 drop=0 speed=0.639x    frame=  325 fps= 32 q=-0.0 size= 3948750kB time=00:00:06.50 bitrate=4976640.0kbits/s dup=222 drop=0 speed=0.633x    frame=  347 fps= 31 q=-0.0 size= 4216050kB time=00:00:06.94 bitrate=4976640.0kbits/s dup=240 drop=0 speed=0.627x    frame=  367 fps= 31 q=-0.0 size= 4459050kB time=00:00:07.34 bitrate=4976640.0kbits/s dup=256 drop=0 speed=0.63x    frame=  385 fps= 31 q=-0.0 size= 4677750kB time=00:00:07.70 bitrate=4976640.0kbits/s dup=270 drop=0 speed=0.618x    frame=  404 fps= 31 q=-0.0 size= 4908600kB time=00:00:08.08 bitrate=4976640.0kbits/s dup=286 drop=0 speed=0.622x    frame=  409 fps= 30 q=-0.0 size= 4969350kB time=00:00:08.18 bitrate=4976640.0kbits/s dup=289 drop=0 speed=0.597x    frame=  433 fps= 30 q=-0.0 size= 5260950kB time=00:00:08.66 bitrate=4976640.0kbits/s dup=309 drop=0 speed=0.598x    frame=  445 fps= 30 q=-0.0 size= 5406750kB time=00:00:08.90 bitrate=4976640.0kbits/s dup=318 drop=0 speed=0.593x    frame=  469 fps= 30 q=-0.0 size= 5698350kB time=00:00:09.38 bitrate=4976640.0kbits/s dup=338 drop=0 speed=0.594x    frame=  481 fps= 29 q=-0.0 size= 5844150kB time=00:00:09.62 bitrate=4976640.0kbits/s dup=347 drop=0 speed=0.588x    frame=  500 fps= 29 q=-0.0 size= 6075000kB time=00:00:10.00 bitrate=4976640.0kbits/s dup=363 drop=0 speed=0.584x    frame=  505 fps= 29 q=-0.0 Lsize= 6135750kB time=00:00:10.10 bitrate=4976640.0kbits/s dup=368 drop=0 speed=0.585x    
video:6135750kB audio:0kB subtitle:0kB other streams:0kB global headers:0kB muxing overhead: 0.000000%
